<?xml version="1.0" standalone="no"?>
<!DOCTYPE svg PUBLIC "-//W3C//DTD SVG 20010904//EN"
 "http://www.w3.org/TR/2001/REC-SVG-20010904/DTD/svg10.dtd">
<svg version="1.0" xmlns="http://www.w3.org/2000/svg"
 width="309.000000pt" height="320.000000pt" viewBox="0 0 309.000000 320.000000"
 preserveAspectRatio="xMidYMid meet">

<g transform="translate(0.000000,320.000000) scale(0.100000,-0.100000)"
fill="#000000" stroke="none">
<path d="M0 1600 l0 -1600 1545 0 1545 0 0 1600 0 1600 -1545 0 -1545 0 0
-1600z m1524 1429 c-4 -8 29 -10 114 -8 67 2 124 1 127 -2 3 -4 21 -4 40 -2
19 2 35 -1 35 -5 0 -5 11 -8 25 -7 14 2 25 0 25 -4 0 -5 12 -9 28 -9 47 -3 67
-7 72 -14 3 -4 20 -9 37 -13 18 -3 44 -10 58 -15 15 -6 31 -8 36 -4 5 3 9 2 9
-3 0 -11 51 -34 61 -27 5 3 9 0 9 -6 0 -6 5 -8 10 -5 6 3 10 2 10 -4 0 -8 18
-18 50 -26 20 -6 53 -24 45 -25 -5 0 13 -12 40 -25 28 -13 46 -24 41 -24 -9
-1 38 -41 47 -41 3 0 33 -27 66 -60 34 -33 65 -60 70 -60 6 0 13 -5 17 -12 5
-7 3 -8 -7 -3 -8 5 -6 -1 5 -13 18 -21 18 -21 -8 -33 -16 -8 -25 -18 -22 -26
3 -8 1 -11 -4 -8 -6 4 -14 -4 -19 -17 -6 -13 -10 -19 -10 -15 -1 5 -38 -28
-83 -72 -44 -45 -85 -81 -90 -81 -4 0 -8 -7 -8 -15 0 -8 -7 -15 -16 -15 -9 0
-12 -5 -8 -12 4 -7 3 -8 -4 -4 -7 4 -12 14 -12 22 0 8 -4 13 -8 10 -5 -3 -21
10 -37 29 -15 19 -30 33 -34 30 -5 -2 -18 9 -30 25 -12 17 -28 30 -35 30 -7 0
-19 7 -26 15 -7 8 -17 12 -23 8 -5 -3 -7 -1 -3 5 3 6 2 13 -4 17 -5 3 -10 0
-10 -7 0 -8 -3 -9 -8 -3 -4 6 -14 11 -22 13 -8 2 -19 10 -23 18 -4 8 -16 14
-27 14 -10 0 -20 5 -22 11 -2 5 -18 11 -35 11 -18 1 -30 5 -27 10 3 4 2 9 -3
9 -4 1 -21 3 -36 5 -16 1 -36 9 -45 16 -13 11 -14 11 -7 -2 7 -13 6 -13 -7 -2
-9 7 -22 12 -30 11 -7 -2 -31 3 -53 9 -30 9 -41 9 -47 -1 -5 -8 -8 -8 -8 -1 0
8 -36 11 -110 11 -60 0 -110 -2 -110 -6 0 -3 -19 -7 -42 -8 -24 -1 -51 -3 -62
-3 -10 -1 -25 -7 -32 -15 -8 -7 -23 -11 -34 -8 -12 3 -20 0 -20 -6 0 -7 -4 -9
-10 -6 -5 3 -10 3 -10 -2 0 -4 -13 -8 -29 -9 -16 -1 -39 -11 -51 -22 -13 -12
-27 -19 -31 -16 -10 6 -49 -13 -69 -35 -8 -9 -21 -17 -28 -19 -20 -4 -62 -33
-62 -43 0 -5 -5 -9 -10 -9 -6 0 -23 -11 -37 -24 -15 -14 -31 -22 -37 -19 -5 4
-7 -1 -3 -10 4 -11 1 -17 -9 -17 -8 0 -12 -4 -9 -10 3 -5 0 -10 -8 -10 -8 0
-21 -10 -30 -22 -8 -13 -25 -34 -37 -48 -12 -14 -27 -37 -32 -52 -6 -16 -14
-28 -20 -28 -5 0 -6 -4 -3 -10 3 -5 1 -10 -4 -10 -6 0 -11 -7 -11 -15 0 -8 -4
-15 -9 -15 -9 0 -37 -70 -32 -79 2 -2 -1 -7 -6 -10 -13 -9 -44 -102 -37 -113
3 -5 -2 -20 -11 -35 -9 -14 -12 -22 -6 -19 6 4 11 2 11 -3 0 -6 -5 -11 -10
-11 -6 0 -8 -11 -4 -25 3 -14 2 -25 -4 -25 -5 0 -10 -15 -11 -32 -6 -147 -7
-244 -3 -252 3 -5 6 -33 6 -61 1 -29 7 -59 15 -68 11 -14 11 -17 0 -18 -9 0
-10 -2 -3 -5 7 -3 9 -14 6 -26 -3 -13 -1 -19 5 -15 5 3 9 -4 8 -16 -1 -12 3
-33 10 -47 7 -14 10 -31 8 -37 -3 -7 2 -16 11 -19 9 -3 13 -10 10 -15 -3 -5 4
-25 16 -44 12 -19 19 -35 15 -35 -3 0 -1 -9 5 -20 6 -11 16 -17 22 -14 6 4 8
3 5 -3 -7 -12 29 -73 43 -73 5 0 10 -9 10 -21 0 -11 4 -17 10 -14 6 3 10 1 10
-5 0 -13 98 -115 111 -115 5 0 10 -4 10 -10 2 -13 62 -54 72 -48 4 2 7 -3 7
-11 0 -9 5 -16 11 -16 6 0 22 -9 36 -20 14 -11 29 -17 34 -14 5 3 9 1 9 -4 0
-8 16 -16 43 -20 4 -1 15 -8 23 -17 9 -8 25 -15 37 -15 12 0 33 -6 48 -13 14
-8 33 -13 42 -11 10 1 14 -2 11 -8 -4 -6 2 -8 16 -3 14 4 20 3 17 -2 -4 -6 4
-8 20 -5 14 3 23 1 20 -4 -3 -5 7 -9 21 -8 15 1 32 -1 37 -5 15 -9 316 -11
311 -2 -3 5 6 7 19 5 14 -1 25 1 25 4 0 4 17 8 37 9 21 1 39 7 41 12 2 5 10 7
18 4 8 -3 14 -1 14 5 0 6 15 13 33 17 46 9 87 26 87 36 0 5 3 8 8 8 21 -4 43
2 38 10 -3 5 19 21 50 35 30 14 52 31 49 36 -3 6 -1 10 5 10 6 0 22 12 36 27
14 16 22 21 18 13 -7 -13 -6 -13 10 0 10 8 22 25 27 38 5 13 13 20 19 17 5 -3
10 -1 10 5 0 6 12 23 28 37 15 14 20 22 12 17 -14 -8 -14 -8 0 6 21 21 52 70
43 70 -4 0 2 7 13 15 10 8 15 15 11 15 -5 0 -1 7 8 16 9 9 19 29 22 45 3 16 8
29 12 29 7 0 12 26 15 72 0 14 4 24 9 21 4 -2 7 2 8 9 2 29 6 54 13 76 l7 22
-475 0 -476 0 0 193 0 192 670 0 670 0 1 -30 c1 -16 1 -38 0 -47 -1 -10 2 -18
6 -18 5 0 8 -25 6 -55 -1 -41 1 -54 10 -48 7 4 6 -1 -2 -11 -12 -14 -13 -21
-2 -38 9 -14 9 -18 1 -13 -9 5 -11 -10 -8 -59 1 -36 0 -66 -3 -66 -3 0 -7 -26
-7 -57 -3 -87 -5 -103 -15 -103 -5 0 -7 -11 -5 -25 3 -13 1 -26 -5 -28 -5 -1
-10 -17 -10 -34 -1 -17 -6 -29 -11 -25 -5 3 -7 -2 -3 -11 3 -10 2 -17 -3 -17
-6 0 -10 -8 -10 -18 0 -10 -8 -34 -18 -54 -10 -19 -17 -43 -16 -52 1 -9 -1
-16 -5 -16 -3 0 -18 -21 -31 -48 -14 -26 -34 -58 -45 -72 -20 -24 -20 -24 0
-10 11 8 5 -2 -12 -21 -18 -19 -33 -38 -33 -42 0 -11 -64 -80 -144 -156 -121
-115 -126 -120 -126 -113 0 4 -6 0 -13 -9 -7 -9 -23 -20 -37 -24 -14 -4 -27
-11 -30 -14 -8 -10 -59 -41 -66 -40 -4 0 -10 -4 -14 -10 -3 -6 -15 -13 -26
-15 -10 -2 -35 -11 -54 -19 -42 -18 -82 -34 -92 -36 -4 -1 -25 -8 -47 -16 -22
-7 -42 -11 -45 -7 -4 3 -13 -3 -22 -14 -8 -10 -13 -13 -9 -7 3 7 1 13 -4 13
-6 0 -11 -4 -11 -9 0 -5 -10 -7 -22 -3 -12 3 -19 1 -15 -4 3 -6 -9 -8 -30 -6
-23 3 -33 1 -29 -6 4 -6 -2 -8 -14 -5 -11 3 -33 0 -49 -5 -19 -7 -42 -7 -61
-2 -16 5 -30 6 -30 2 0 -4 -45 -7 -100 -7 -55 0 -100 2 -100 5 0 3 -15 5 -34
4 -19 -1 -65 4 -102 11 -37 7 -76 10 -87 7 -11 -3 -18 -1 -14 4 3 5 -2 10 -11
11 -25 2 -45 8 -60 16 -7 5 -22 5 -33 2 -14 -5 -19 -3 -15 3 3 6 -8 13 -26 17
-28 6 -62 21 -150 66 -10 5 -25 9 -33 9 -9 0 -18 7 -21 15 -4 8 -15 15 -25 15
-10 0 -19 4 -19 9 0 5 -15 16 -32 24 -18 9 -49 31 -69 49 -65 58 -104 88 -117
88 -7 0 -10 4 -7 10 3 5 -3 15 -15 22 -11 7 -20 17 -20 21 0 10 -19 28 -45 43
-11 6 -20 15 -20 20 0 9 -14 27 -72 93 -18 20 -33 41 -33 47 0 6 -11 23 -25
38 -14 15 -25 32 -25 37 0 6 -11 25 -25 43 -14 18 -25 38 -25 43 0 16 -36 94
-41 89 -2 -2 -4 9 -5 25 -1 16 -8 37 -16 47 -9 9 -13 23 -11 30 3 6 0 12 -5
12 -6 0 -8 10 -4 22 3 14 1 19 -6 14 -6 -4 -11 1 -11 11 -1 43 -4 59 -14 70
-6 9 -6 13 2 13 9 0 9 5 1 20 -6 10 -10 23 -9 27 5 28 -3 86 -9 76 -5 -7 -8
70 -8 171 1 101 4 182 9 179 4 -2 7 3 7 12 0 9 -4 13 -10 10 -5 -3 -10 -1 -10
4 0 6 5 11 11 11 6 0 9 6 6 14 -3 8 -2 16 3 18 5 2 10 23 13 48 2 25 8 53 12
63 4 9 5 24 1 32 -3 8 -1 15 4 15 8 0 26 57 22 73 -1 4 3 7 8 7 6 0 10 5 10
11 0 5 -6 7 -12 4 -7 -4 -3 2 9 13 16 14 19 22 10 31 -7 7 -8 11 0 11 11 0 36
52 36 76 0 8 4 14 9 14 5 0 6 5 3 10 -3 6 -1 10 6 10 7 0 9 3 6 7 -4 3 1 12
11 20 11 9 11 12 2 7 -8 -4 -5 3 8 15 12 12 19 28 16 34 -4 7 -3 9 1 4 7 -6
59 67 60 84 0 3 16 21 35 40 31 30 90 98 136 154 8 11 12 13 8 5 -4 -8 9 1 29
20 41 41 100 89 142 116 17 10 37 26 46 36 9 10 21 18 27 18 21 0 61 23 56 31
-4 8 12 13 19 7 1 -2 18 7 37 19 63 39 338 117 408 115 12 0 22 4 22 9 0 5 7
9 16 9 8 0 13 -4 10 -8 -2 -4 11 -6 30 -4 19 2 37 8 40 13 3 5 7 9 10 9 3 0 2
-5 -2 -11z"/>
<path d="M1558 2653 c7 -3 16 -2 19 1 4 3 -2 6 -13 5 -11 0 -14 -3 -6 -6z"/>
<path d="M1628 2653 c7 -3 16 -2 19 1 4 3 -2 6 -13 5 -11 0 -14 -3 -6 -6z"/>
<path d="M1818 1383 c127 -2 337 -2 465 0 127 1 23 2 -233 2 -256 0 -360 -1
-232 -2z"/>
</g>
</svg>
